<svg width="1200" height="800" viewBox="0 0 1200 800" fill="none" xmlns="http://www.w3.org/2000/svg">
  <defs>
    <linearGradient id="g1" x1="0" y1="0" x2="1" y2="1">
      <stop offset="0" stop-color="#00A5FF"/>
      <stop offset="1" stop-color="#0055A5"/>
    </linearGradient>
    <filter id="f1" x="-20%" y="-20%" width="140%" height="140%">
      <feDropShadow dx="0" dy="24" stdDeviation="40" flood-color="#08315e" flood-opacity="0.12"/>
    </filter>
  </defs>
  <rect x="60" y="80" width="480" height="320" rx="22" fill="url(#g1)" filter="url(#f1)"/>
  <rect x="360" y="220" width="520" height="380" rx="26" fill="#fff"/>
  <g transform="translate(420,280)">
    <rect x="0" y="0" width="300" height="18" rx="8" fill="#e9f4ff"/>
    <rect x="0" y="36" width="220" height="14" rx="6" fill="#f3f7fb"/>
    <rect x="0" y="68" width="280" height="14" rx="6" fill="#f3f7fb"/>
    <rect x="0" y="100" width="160" height="14" rx="6" fill="#f3f7fb"/>
  </g>
  <circle cx="920" cy="120" r="72" fill="#fff" opacity="0.12"/>
  <circle cx="900" cy="140" r="36" fill="#00A5FF"/>
  <g transform="translate(120,460)">
    <rect x="0" y="0" width="240" height="140" rx="12" fill="#fff" opacity="0.9"/>
    <rect x="16" y="18" width="208" height="16" rx="8" fill="#f3f7fb"/>
    <rect x="16" y="46" width="176" height="12" rx="6" fill="#f3f7fb"/>
    <rect x="16" y="74" width="120" height="12" rx="6" fill="#f3f7fb"/>
  </g>
</svg>